<svg width="53" height="23" viewBox="0 0 53 23" fill="none" xmlns="http://www.w3.org/2000/svg">
<path d="M16.3333 11.6633C16.6049 11.9405 16.929 12.1607 17.2868 12.311C17.6445 12.4613 18.0286 12.5388 18.4167 12.5388C18.8047 12.5388 19.1888 12.4613 19.5466 12.311C19.9043 12.1607 20.2284 11.9405 20.5 11.6633L23.8333 8.33C24.3711 7.77445 24.669 7.02977 24.6627 6.25657C24.6565 5.48338 24.3465 4.74364 23.7998 4.19689C23.253 3.65014 22.5133 3.3402 21.7401 3.33393C20.9669 3.32765 20.2222 3.62553 19.6667 4.16333L19.25 4.58" stroke="#1B48DA" stroke-width="1.66667" stroke-linecap="round" stroke-linejoin="round"/>
<path d="M19.6667 8.33667C19.395 8.05971 19.0708 7.8397 18.7131 7.6895C18.3554 7.53931 17.9713 7.46196 17.5833 7.46196C17.1954 7.46196 16.8113 7.53931 16.4536 7.6895C16.0959 7.8397 15.7717 8.05971 15.5 8.33667L12.1667 11.67C11.6289 12.2256 11.331 12.9702 11.3373 13.7434C11.3435 14.5166 11.6535 15.2564 12.2002 15.8031C12.747 16.3499 13.4867 16.6598 14.2599 16.6661C15.0331 16.6724 15.7778 16.3745 16.3333 15.8367L16.75 15.42" stroke="#1B48DA" stroke-width="1.66667" stroke-linecap="round" stroke-linejoin="round"/>
<mask id="path-3-outside-1_5_2" maskUnits="userSpaceOnUse" x="3" y="0" width="30" height="11" fill="black">
<rect fill="white" x="3" width="30" height="11"/>
<path d="M4.05682 10V1.27273H5.11364V9.0625H9.17045V10H4.05682ZM10.6705 10V3.45455H11.6761V10H10.6705ZM11.1818 2.36364C10.9858 2.36364 10.8168 2.29688 10.6747 2.16335C10.5355 2.02983 10.4659 1.86932 10.4659 1.68182C10.4659 1.49432 10.5355 1.33381 10.6747 1.20028C10.8168 1.06676 10.9858 1 11.1818 1C11.3778 1 11.5455 1.06676 11.6847 1.20028C11.8267 1.33381 11.8977 1.49432 11.8977 1.68182C11.8977 1.86932 11.8267 2.02983 11.6847 2.16335C11.5455 2.29688 11.3778 2.36364 11.1818 2.36364ZM27.9556 7.61364L27.9386 6.36932H28.1431L31.0067 3.45455H32.2511L29.1999 6.53977H29.1147L27.9556 7.61364ZM27.0181 10V1.27273H28.0238V10H27.0181ZM31.1772 10L28.6204 6.76136L29.3363 6.0625L32.4556 10H31.1772Z"/>
</mask>
<path d="M4.05682 10V1.27273H5.11364V9.0625H9.17045V10H4.05682ZM10.6705 10V3.45455H11.6761V10H10.6705ZM11.1818 2.36364C10.9858 2.36364 10.8168 2.29688 10.6747 2.16335C10.5355 2.02983 10.4659 1.86932 10.4659 1.68182C10.4659 1.49432 10.5355 1.33381 10.6747 1.20028C10.8168 1.06676 10.9858 1 11.1818 1C11.3778 1 11.5455 1.06676 11.6847 1.20028C11.8267 1.33381 11.8977 1.49432 11.8977 1.68182C11.8977 1.86932 11.8267 2.02983 11.6847 2.16335C11.5455 2.29688 11.3778 2.36364 11.1818 2.36364ZM27.9556 7.61364L27.9386 6.36932H28.1431L31.0067 3.45455H32.2511L29.1999 6.53977H29.1147L27.9556 7.61364ZM27.0181 10V1.27273H28.0238V10H27.0181ZM31.1772 10L28.6204 6.76136L29.3363 6.0625L32.4556 10H31.1772Z" fill="white"/>
<path d="M4.05682 10H3.95682V10.1H4.05682V10ZM4.05682 1.27273V1.17273H3.95682V1.27273H4.05682ZM5.11364 1.27273H5.21364V1.17273H5.11364V1.27273ZM5.11364 9.0625H5.01364V9.1625H5.11364V9.0625ZM9.17045 9.0625H9.27045V8.9625H9.17045V9.0625ZM9.17045 10V10.1H9.27045V10H9.17045ZM4.15682 10V1.27273H3.95682V10H4.15682ZM4.05682 1.37273H5.11364V1.17273H4.05682V1.37273ZM5.01364 1.27273V9.0625H5.21364V1.27273H5.01364ZM5.11364 9.1625H9.17045V8.9625H5.11364V9.1625ZM9.07045 9.0625V10H9.27045V9.0625H9.07045ZM9.17045 9.9H4.05682V10.1H9.17045V9.9ZM10.6705 10H10.5705V10.1H10.6705V10ZM10.6705 3.45455V3.35455H10.5705V3.45455H10.6705ZM11.6761 3.45455H11.7761V3.35455H11.6761V3.45455ZM11.6761 10V10.1H11.7761V10H11.6761ZM10.6747 2.16335L10.6055 2.23552L10.6062 2.23621L10.6747 2.16335ZM10.6747 1.20028L10.6062 1.12742L10.6055 1.12812L10.6747 1.20028ZM11.6847 1.20028L11.6154 1.27246L11.6162 1.27315L11.6847 1.20028ZM11.6847 2.16335L11.6162 2.09049L11.6154 2.09118L11.6847 2.16335ZM10.7705 10V3.45455H10.5705V10H10.7705ZM10.6705 3.55455H11.6761V3.35455H10.6705V3.55455ZM11.5761 3.45455V10H11.7761V3.45455H11.5761ZM11.6761 9.9H10.6705V10.1H11.6761V9.9ZM11.1818 2.26364C11.0111 2.26364 10.8666 2.20647 10.7432 2.09049L10.6062 2.23621C10.7669 2.38728 10.9605 2.46364 11.1818 2.46364V2.26364ZM10.7439 2.09118C10.6238 1.97591 10.5659 1.8412 10.5659 1.68182H10.3659C10.3659 1.89743 10.4473 2.08375 10.6055 2.23552L10.7439 2.09118ZM10.5659 1.68182C10.5659 1.52243 10.6238 1.38773 10.7439 1.27245L10.6055 1.12812C10.4473 1.27989 10.3659 1.4662 10.3659 1.68182H10.5659ZM10.7432 1.27315C10.8666 1.15716 11.0111 1.1 11.1818 1.1V0.9C10.9605 0.9 10.7669 0.976359 10.6062 1.12742L10.7432 1.27315ZM11.1818 1.1C11.3525 1.1 11.4952 1.15711 11.6154 1.27245L11.7539 1.12812C11.5957 0.976412 11.4032 0.9 11.1818 0.9V1.1ZM11.6162 1.27315C11.739 1.38862 11.7977 1.52312 11.7977 1.68182H11.9977C11.9977 1.46551 11.9144 1.279 11.7532 1.12742L11.6162 1.27315ZM11.7977 1.68182C11.7977 1.84051 11.739 1.97502 11.6162 2.09049L11.7532 2.23621C11.9144 2.08464 11.9977 1.89812 11.9977 1.68182H11.7977ZM11.6154 2.09118C11.4952 2.20653 11.3525 2.26364 11.1818 2.26364V2.46364C11.4032 2.46364 11.5957 2.38722 11.7539 2.23552L11.6154 2.09118ZM27.9556 7.61364L27.8556 7.61501L27.8587 7.83974L28.0236 7.68699L27.9556 7.61364ZM27.9386 6.36932V6.26932H27.8372L27.8386 6.37069L27.9386 6.36932ZM28.1431 6.36932V6.46932H28.1851L28.2144 6.4394L28.1431 6.36932ZM31.0067 3.45455V3.35455H30.9648L30.9354 3.38446L31.0067 3.45455ZM32.2511 3.45455L32.3222 3.52486L32.4906 3.35455H32.2511V3.45455ZM29.1999 6.53977V6.63977H29.2417L29.271 6.61009L29.1999 6.53977ZM29.1147 6.53977V6.43977H29.0755L29.0467 6.46642L29.1147 6.53977ZM27.0181 10H26.9181V10.1H27.0181V10ZM27.0181 1.27273V1.17273H26.9181V1.27273H27.0181ZM28.0238 1.27273H28.1238V1.17273H28.0238V1.27273ZM28.0238 10V10.1H28.1238V10H28.0238ZM31.1772 10L31.0987 10.062L31.1287 10.1H31.1772V10ZM28.6204 6.76136L28.5505 6.68981L28.4861 6.75268L28.5419 6.82333L28.6204 6.76136ZM29.3363 6.0625L29.4147 6.0004L29.3458 5.91347L29.2664 5.99094L29.3363 6.0625ZM32.4556 10V10.1H32.6624L32.534 9.9379L32.4556 10ZM28.0556 7.61227L28.0386 6.36795L27.8386 6.37069L27.8556 7.61501L28.0556 7.61227ZM27.9386 6.46932H28.1431V6.26932H27.9386V6.46932ZM28.2144 6.4394L31.0781 3.52463L30.9354 3.38446L28.0718 6.29924L28.2144 6.4394ZM31.0067 3.55455H32.2511V3.35455H31.0067V3.55455ZM32.18 3.38423L29.1288 6.46946L29.271 6.61009L32.3222 3.52486L32.18 3.38423ZM29.1999 6.43977H29.1147V6.63977H29.1999V6.43977ZM29.0467 6.46642L27.8876 7.54028L28.0236 7.68699L29.1827 6.61313L29.0467 6.46642ZM27.1181 10V1.27273H26.9181V10H27.1181ZM27.0181 1.37273H28.0238V1.17273H27.0181V1.37273ZM27.9238 1.27273V10H28.1238V1.27273H27.9238ZM28.0238 9.9H27.0181V10.1H28.0238V9.9ZM31.2557 9.93804L28.6989 6.6994L28.5419 6.82333L31.0987 10.062L31.2557 9.93804ZM28.6902 6.83292L29.4061 6.13406L29.2664 5.99094L28.5505 6.68981L28.6902 6.83292ZM29.2579 6.1246L32.3772 10.0621L32.534 9.9379L29.4147 6.0004L29.2579 6.1246ZM32.4556 9.9H31.1772V10.1H32.4556V9.9Z" fill="#1B48DA" mask="url(#path-3-outside-1_5_2)"/>
<mask id="path-6-outside-2_5_2" maskUnits="userSpaceOnUse" x="-0.5" y="11" width="54" height="12" fill="black">
<rect fill="white" x="-0.5" y="11" width="54" height="12"/>
<path d="M0.556818 11.2727H1.81818L4.78409 18.517H4.88636L7.85227 11.2727H9.11364V20H8.125V13.3693H8.03977L5.3125 20H4.35795L1.63068 13.3693H1.54545V20H0.556818V11.2727ZM22.2269 16.0625V20H21.2212V13.4545H22.1928V14.4773H22.2781C22.4315 14.1449 22.6644 13.8778 22.9769 13.6761C23.2894 13.4716 23.6928 13.3693 24.1871 13.3693C24.6303 13.3693 25.0181 13.4602 25.3505 13.642C25.6829 13.821 25.9414 14.0938 26.1261 14.4602C26.3107 14.8239 26.4031 15.2841 26.4031 15.8409V20H25.3974V15.9091C25.3974 15.3949 25.2638 14.9943 24.9968 14.7074C24.7298 14.4176 24.3633 14.2727 23.8974 14.2727C23.5763 14.2727 23.2894 14.3423 23.0366 14.4815C22.7866 14.6207 22.5891 14.8239 22.4442 15.0909C22.2994 15.358 22.2269 15.6818 22.2269 16.0625ZM30.1669 20.1534C29.7521 20.1534 29.3757 20.0753 29.0376 19.919C28.6996 19.7599 28.4311 19.5312 28.2322 19.233C28.0334 18.9318 27.9339 18.5682 27.9339 18.142C27.9339 17.767 28.0078 17.4631 28.1555 17.2301C28.3033 16.9943 28.5007 16.8097 28.7479 16.6761C28.995 16.5426 29.2678 16.4432 29.5661 16.3778C29.8672 16.3097 30.1697 16.2557 30.4737 16.2159C30.8714 16.1648 31.1939 16.1264 31.4411 16.1009C31.6911 16.0724 31.8729 16.0256 31.9865 15.9602C32.103 15.8949 32.1612 15.7812 32.1612 15.6193V15.5852C32.1612 15.1648 32.0462 14.8381 31.8161 14.6051C31.5888 14.3722 31.2436 14.2557 30.7805 14.2557C30.3004 14.2557 29.924 14.3608 29.6513 14.571C29.3786 14.7812 29.1868 15.0057 29.076 15.2443L28.1214 14.9034C28.2919 14.5057 28.5192 14.196 28.8033 13.9744C29.0902 13.75 29.4027 13.5937 29.7408 13.5057C30.0817 13.4148 30.4169 13.3693 30.7464 13.3693C30.9567 13.3693 31.1982 13.3949 31.4709 13.446C31.7464 13.4943 32.0121 13.5952 32.2678 13.7486C32.5263 13.902 32.7408 14.1335 32.9112 14.4432C33.0817 14.7528 33.1669 15.1676 33.1669 15.6875V20H32.1612V19.1136H32.1101C32.0419 19.2557 31.9283 19.4077 31.7692 19.5696C31.6101 19.7315 31.3984 19.8693 31.1342 19.983C30.87 20.0966 30.5476 20.1534 30.1669 20.1534ZM30.3203 19.25C30.718 19.25 31.0533 19.1719 31.326 19.0156C31.6016 18.8594 31.8089 18.6577 31.9482 18.4105C32.0902 18.1634 32.1612 17.9034 32.1612 17.6307V16.7102C32.1186 16.7614 32.0249 16.8082 31.88 16.8509C31.7379 16.8906 31.5732 16.9261 31.3857 16.9574C31.201 16.9858 31.0206 17.0114 30.8445 17.0341C30.6712 17.054 30.5305 17.071 30.4226 17.0852C30.1612 17.1193 29.9169 17.1747 29.6896 17.2514C29.4652 17.3253 29.2834 17.4375 29.1442 17.5881C29.0078 17.7358 28.9396 17.9375 28.9396 18.1932C28.9396 18.5426 29.0689 18.8068 29.3274 18.9858C29.5888 19.1619 29.9197 19.25 30.3203 19.25ZM37.6445 22.5909C37.1587 22.5909 36.7411 22.5284 36.3917 22.4034C36.0423 22.2812 35.7511 22.1193 35.5181 21.9176C35.288 21.7188 35.1048 21.5057 34.9684 21.2784L35.7695 20.7159C35.8604 20.8352 35.9755 20.9716 36.1147 21.125C36.2539 21.2812 36.4442 21.4162 36.6857 21.5298C36.93 21.6463 37.2496 21.7045 37.6445 21.7045C38.1729 21.7045 38.609 21.5767 38.9528 21.321C39.2965 21.0653 39.4684 20.6648 39.4684 20.1193V18.7898H39.3832C39.3093 18.9091 39.2042 19.0568 39.0678 19.233C38.9343 19.4062 38.7411 19.5611 38.4883 19.6974C38.2383 19.831 37.9002 19.8977 37.4741 19.8977C36.9457 19.8977 36.4712 19.7727 36.0508 19.5227C35.6332 19.2727 35.3022 18.9091 35.0579 18.4318C34.8164 17.9545 34.6957 17.375 34.6957 16.6932C34.6957 16.0227 34.8136 15.4389 35.0494 14.9418C35.2852 14.4418 35.6133 14.0554 36.0337 13.7827C36.4542 13.5071 36.94 13.3693 37.4911 13.3693C37.9173 13.3693 38.2553 13.4403 38.5053 13.5824C38.7582 13.7216 38.9513 13.8807 39.0849 14.0597C39.2212 14.2358 39.3263 14.3807 39.4002 14.4943H39.5025V13.4545H40.4741V20.1875C40.4741 20.75 40.3462 21.2074 40.0906 21.5597C39.8377 21.9148 39.4968 22.1747 39.0678 22.3395C38.6417 22.5071 38.1673 22.5909 37.6445 22.5909ZM37.6104 18.9943C38.0138 18.9943 38.3548 18.902 38.6332 18.7173C38.9116 18.5327 39.1232 18.267 39.2681 17.9205C39.413 17.5739 39.4854 17.1591 39.4854 16.6761C39.4854 16.2045 39.4144 15.7884 39.2724 15.4276C39.1303 15.0668 38.9201 14.7841 38.6417 14.5795C38.3633 14.375 38.0195 14.2727 37.6104 14.2727C37.1843 14.2727 36.8292 14.3807 36.5451 14.5966C36.2638 14.8125 36.0522 15.1023 35.9102 15.4659C35.771 15.8295 35.7013 16.233 35.7013 16.6761C35.7013 17.1307 35.7724 17.5327 35.9144 17.8821C36.0593 18.2287 36.2724 18.5014 36.5536 18.7003C36.8377 18.8963 37.19 18.9943 37.6104 18.9943ZM45.0593 20.1364C44.4286 20.1364 43.8846 19.9972 43.4272 19.7188C42.9727 19.4375 42.6218 19.0455 42.3746 18.5426C42.1303 18.0369 42.0082 17.4489 42.0082 16.7784C42.0082 16.108 42.1303 15.517 42.3746 15.0057C42.6218 14.4915 42.9656 14.0909 43.4059 13.804C43.8491 13.5142 44.3661 13.3693 44.957 13.3693C45.2979 13.3693 45.6346 13.4261 45.967 13.5398C46.2994 13.6534 46.6019 13.8381 46.8746 14.0938C47.1474 14.3466 47.3647 14.6818 47.5266 15.0994C47.6886 15.517 47.7695 16.0312 47.7695 16.642V17.0682H42.7241V16.1989H46.7468C46.7468 15.8295 46.6729 15.5 46.5252 15.2102C46.3803 14.9205 46.1729 14.6918 45.9031 14.5241C45.636 14.3565 45.3207 14.2727 44.957 14.2727C44.5565 14.2727 44.2099 14.3722 43.9173 14.571C43.6275 14.767 43.4045 15.0227 43.2482 15.3381C43.092 15.6534 43.0138 15.9915 43.0138 16.3523V16.9318C43.0138 17.4261 43.0991 17.8452 43.2695 18.1889C43.4428 18.5298 43.6829 18.7898 43.9897 18.9688C44.2965 19.1449 44.6531 19.233 45.0593 19.233C45.3235 19.233 45.5621 19.196 45.7752 19.1222C45.9911 19.0455 46.1772 18.9318 46.3335 18.7812C46.4897 18.6278 46.6104 18.4375 46.6957 18.2102L47.6673 18.483C47.565 18.8125 47.3931 19.1023 47.1516 19.3523C46.9102 19.5994 46.6119 19.7926 46.2567 19.9318C45.9016 20.0682 45.5025 20.1364 45.0593 20.1364ZM49.2994 20V13.4545H50.271V14.4432H50.3391C50.4585 14.1193 50.6744 13.8565 50.9869 13.6548C51.2994 13.4531 51.6516 13.3523 52.0437 13.3523C52.1175 13.3523 52.2099 13.3537 52.3207 13.3565C52.4315 13.3594 52.5153 13.3636 52.5721 13.3693V14.392C52.538 14.3835 52.4599 14.3707 52.3377 14.3537C52.2184 14.3338 52.092 14.3239 51.9585 14.3239C51.6403 14.3239 51.3562 14.3906 51.1062 14.5241C50.859 14.6548 50.663 14.8366 50.5181 15.0696C50.3761 15.2997 50.305 15.5625 50.305 15.858V20H49.2994Z"/>
</mask>
<path d="M0.556818 11.2727H1.81818L4.78409 18.517H4.88636L7.85227 11.2727H9.11364V20H8.125V13.3693H8.03977L5.3125 20H4.35795L1.63068 13.3693H1.54545V20H0.556818V11.2727ZM22.2269 16.0625V20H21.2212V13.4545H22.1928V14.4773H22.2781C22.4315 14.1449 22.6644 13.8778 22.9769 13.6761C23.2894 13.4716 23.6928 13.3693 24.1871 13.3693C24.6303 13.3693 25.0181 13.4602 25.3505 13.642C25.6829 13.821 25.9414 14.0938 26.1261 14.4602C26.3107 14.8239 26.4031 15.2841 26.4031 15.8409V20H25.3974V15.9091C25.3974 15.3949 25.2638 14.9943 24.9968 14.7074C24.7298 14.4176 24.3633 14.2727 23.8974 14.2727C23.5763 14.2727 23.2894 14.3423 23.0366 14.4815C22.7866 14.6207 22.5891 14.8239 22.4442 15.0909C22.2994 15.358 22.2269 15.6818 22.2269 16.0625ZM30.1669 20.1534C29.7521 20.1534 29.3757 20.0753 29.0376 19.919C28.6996 19.7599 28.4311 19.5312 28.2322 19.233C28.0334 18.9318 27.9339 18.5682 27.9339 18.142C27.9339 17.767 28.0078 17.4631 28.1555 17.2301C28.3033 16.9943 28.5007 16.8097 28.7479 16.6761C28.995 16.5426 29.2678 16.4432 29.5661 16.3778C29.8672 16.3097 30.1697 16.2557 30.4737 16.2159C30.8714 16.1648 31.1939 16.1264 31.4411 16.1009C31.6911 16.0724 31.8729 16.0256 31.9865 15.9602C32.103 15.8949 32.1612 15.7812 32.1612 15.6193V15.5852C32.1612 15.1648 32.0462 14.8381 31.8161 14.6051C31.5888 14.3722 31.2436 14.2557 30.7805 14.2557C30.3004 14.2557 29.924 14.3608 29.6513 14.571C29.3786 14.7812 29.1868 15.0057 29.076 15.2443L28.1214 14.9034C28.2919 14.5057 28.5192 14.196 28.8033 13.9744C29.0902 13.75 29.4027 13.5937 29.7408 13.5057C30.0817 13.4148 30.4169 13.3693 30.7464 13.3693C30.9567 13.3693 31.1982 13.3949 31.4709 13.446C31.7464 13.4943 32.0121 13.5952 32.2678 13.7486C32.5263 13.902 32.7408 14.1335 32.9112 14.4432C33.0817 14.7528 33.1669 15.1676 33.1669 15.6875V20H32.1612V19.1136H32.1101C32.0419 19.2557 31.9283 19.4077 31.7692 19.5696C31.6101 19.7315 31.3984 19.8693 31.1342 19.983C30.87 20.0966 30.5476 20.1534 30.1669 20.1534ZM30.3203 19.25C30.718 19.25 31.0533 19.1719 31.326 19.0156C31.6016 18.8594 31.8089 18.6577 31.9482 18.4105C32.0902 18.1634 32.1612 17.9034 32.1612 17.6307V16.7102C32.1186 16.7614 32.0249 16.8082 31.88 16.8509C31.7379 16.8906 31.5732 16.9261 31.3857 16.9574C31.201 16.9858 31.0206 17.0114 30.8445 17.0341C30.6712 17.054 30.5305 17.071 30.4226 17.0852C30.1612 17.1193 29.9169 17.1747 29.6896 17.2514C29.4652 17.3253 29.2834 17.4375 29.1442 17.5881C29.0078 17.7358 28.9396 17.9375 28.9396 18.1932C28.9396 18.5426 29.0689 18.8068 29.3274 18.9858C29.5888 19.1619 29.9197 19.25 30.3203 19.25ZM37.6445 22.5909C37.1587 22.5909 36.7411 22.5284 36.3917 22.4034C36.0423 22.2812 35.7511 22.1193 35.5181 21.9176C35.288 21.7188 35.1048 21.5057 34.9684 21.2784L35.7695 20.7159C35.8604 20.8352 35.9755 20.9716 36.1147 21.125C36.2539 21.2812 36.4442 21.4162 36.6857 21.5298C36.93 21.6463 37.2496 21.7045 37.6445 21.7045C38.1729 21.7045 38.609 21.5767 38.9528 21.321C39.2965 21.0653 39.4684 20.6648 39.4684 20.1193V18.7898H39.3832C39.3093 18.9091 39.2042 19.0568 39.0678 19.233C38.9343 19.4062 38.7411 19.5611 38.4883 19.6974C38.2383 19.831 37.9002 19.8977 37.4741 19.8977C36.9457 19.8977 36.4712 19.7727 36.0508 19.5227C35.6332 19.2727 35.3022 18.9091 35.0579 18.4318C34.8164 17.9545 34.6957 17.375 34.6957 16.6932C34.6957 16.0227 34.8136 15.4389 35.0494 14.9418C35.2852 14.4418 35.6133 14.0554 36.0337 13.7827C36.4542 13.5071 36.94 13.3693 37.4911 13.3693C37.9173 13.3693 38.2553 13.4403 38.5053 13.5824C38.7582 13.7216 38.9513 13.8807 39.0849 14.0597C39.2212 14.2358 39.3263 14.3807 39.4002 14.4943H39.5025V13.4545H40.4741V20.1875C40.4741 20.75 40.3462 21.2074 40.0906 21.5597C39.8377 21.9148 39.4968 22.1747 39.0678 22.3395C38.6417 22.5071 38.1673 22.5909 37.6445 22.5909ZM37.6104 18.9943C38.0138 18.9943 38.3548 18.902 38.6332 18.7173C38.9116 18.5327 39.1232 18.267 39.2681 17.9205C39.413 17.5739 39.4854 17.1591 39.4854 16.6761C39.4854 16.2045 39.4144 15.7884 39.2724 15.4276C39.1303 15.0668 38.9201 14.7841 38.6417 14.5795C38.3633 14.375 38.0195 14.2727 37.6104 14.2727C37.1843 14.2727 36.8292 14.3807 36.5451 14.5966C36.2638 14.8125 36.0522 15.1023 35.9102 15.4659C35.771 15.8295 35.7013 16.233 35.7013 16.6761C35.7013 17.1307 35.7724 17.5327 35.9144 17.8821C36.0593 18.2287 36.2724 18.5014 36.5536 18.7003C36.8377 18.8963 37.19 18.9943 37.6104 18.9943ZM45.0593 20.1364C44.4286 20.1364 43.8846 19.9972 43.4272 19.7188C42.9727 19.4375 42.6218 19.0455 42.3746 18.5426C42.1303 18.0369 42.0082 17.4489 42.0082 16.7784C42.0082 16.108 42.1303 15.517 42.3746 15.0057C42.6218 14.4915 42.9656 14.0909 43.4059 13.804C43.8491 13.5142 44.3661 13.3693 44.957 13.3693C45.2979 13.3693 45.6346 13.4261 45.967 13.5398C46.2994 13.6534 46.6019 13.8381 46.8746 14.0938C47.1474 14.3466 47.3647 14.6818 47.5266 15.0994C47.6886 15.517 47.7695 16.0312 47.7695 16.642V17.0682H42.7241V16.1989H46.7468C46.7468 15.8295 46.6729 15.5 46.5252 15.2102C46.3803 14.9205 46.1729 14.6918 45.9031 14.5241C45.636 14.3565 45.3207 14.2727 44.957 14.2727C44.5565 14.2727 44.2099 14.3722 43.9173 14.571C43.6275 14.767 43.4045 15.0227 43.2482 15.3381C43.092 15.6534 43.0138 15.9915 43.0138 16.3523V16.9318C43.0138 17.4261 43.0991 17.8452 43.2695 18.1889C43.4428 18.5298 43.6829 18.7898 43.9897 18.9688C44.2965 19.1449 44.6531 19.233 45.0593 19.233C45.3235 19.233 45.5621 19.196 45.7752 19.1222C45.9911 19.0455 46.1772 18.9318 46.3335 18.7812C46.4897 18.6278 46.6104 18.4375 46.6957 18.2102L47.6673 18.483C47.565 18.8125 47.3931 19.1023 47.1516 19.3523C46.9102 19.5994 46.6119 19.7926 46.2567 19.9318C45.9016 20.0682 45.5025 20.1364 45.0593 20.1364ZM49.2994 20V13.4545H50.271V14.4432H50.3391C50.4585 14.1193 50.6744 13.8565 50.9869 13.6548C51.2994 13.4531 51.6516 13.3523 52.0437 13.3523C52.1175 13.3523 52.2099 13.3537 52.3207 13.3565C52.4315 13.3594 52.5153 13.3636 52.5721 13.3693V14.392C52.538 14.3835 52.4599 14.3707 52.3377 14.3537C52.2184 14.3338 52.092 14.3239 51.9585 14.3239C51.6403 14.3239 51.3562 14.3906 51.1062 14.5241C50.859 14.6548 50.663 14.8366 50.5181 15.0696C50.3761 15.2997 50.305 15.5625 50.305 15.858V20H49.2994Z" fill="white"/>
<path d="M0.556818 11.2727V11.1727H0.456818V11.2727H0.556818ZM1.81818 11.2727L1.91073 11.2348L1.8853 11.1727H1.81818V11.2727ZM4.78409 18.517L4.69155 18.5549L4.71698 18.617H4.78409V18.517ZM4.88636 18.517V18.617H4.95348L4.97891 18.5549L4.88636 18.517ZM7.85227 11.2727V11.1727H7.78516L7.75973 11.2348L7.85227 11.2727ZM9.11364 11.2727H9.21364V11.1727H9.11364V11.2727ZM9.11364 20V20.1H9.21364V20H9.11364ZM8.125 20H8.025V20.1H8.125V20ZM8.125 13.3693H8.225V13.2693H8.125V13.3693ZM8.03977 13.3693V13.2693H7.97278L7.94729 13.3313L8.03977 13.3693ZM5.3125 20V20.1H5.3795L5.40498 20.038L5.3125 20ZM4.35795 20L4.26547 20.038L4.29096 20.1H4.35795V20ZM1.63068 13.3693L1.72316 13.3313L1.69768 13.2693H1.63068V13.3693ZM1.54545 13.3693V13.2693H1.44545V13.3693H1.54545ZM1.54545 20V20.1H1.64545V20H1.54545ZM0.556818 20H0.456818V20.1H0.556818V20ZM0.556818 11.3727H1.81818V11.1727H0.556818V11.3727ZM1.72564 11.3106L4.69155 18.5549L4.87664 18.4792L1.91073 11.2348L1.72564 11.3106ZM4.78409 18.617H4.88636V18.417H4.78409V18.617ZM4.97891 18.5549L7.94482 11.3106L7.75973 11.2348L4.79382 18.4792L4.97891 18.5549ZM7.85227 11.3727H9.11364V11.1727H7.85227V11.3727ZM9.01364 11.2727V20H9.21364V11.2727H9.01364ZM9.11364 19.9H8.125V20.1H9.11364V19.9ZM8.225 20V13.3693H8.025V20H8.225ZM8.125 13.2693H8.03977V13.4693H8.125V13.2693ZM7.94729 13.3313L5.22002 19.962L5.40498 20.038L8.13226 13.4074L7.94729 13.3313ZM5.3125 19.9H4.35795V20.1H5.3125V19.9ZM4.45044 19.962L1.72316 13.3313L1.5382 13.4074L4.26547 20.038L4.45044 19.962ZM1.63068 13.2693H1.54545V13.4693H1.63068V13.2693ZM1.44545 13.3693V20H1.64545V13.3693H1.44545ZM1.54545 19.9H0.556818V20.1H1.54545V19.9ZM0.656818 20V11.2727H0.456818V20H0.656818ZM22.2269 20V20.1H22.3269V20H22.2269ZM21.2212 20H21.1212V20.1H21.2212V20ZM21.2212 13.4545V13.3545H21.1212V13.4545H21.2212ZM22.1928 13.4545H22.2928V13.3545H22.1928V13.4545ZM22.1928 14.4773H22.0928V14.5773H22.1928V14.4773ZM22.2781 14.4773V14.5773H22.342L22.3688 14.5192L22.2781 14.4773ZM22.9769 13.6761L23.0311 13.7602L23.0317 13.7598L22.9769 13.6761ZM25.3505 13.642L25.3025 13.7298L25.3031 13.7301L25.3505 13.642ZM26.1261 14.4602L26.0368 14.5052L26.0369 14.5055L26.1261 14.4602ZM26.4031 20V20.1H26.5031V20H26.4031ZM25.3974 20H25.2974V20.1H25.3974V20ZM24.9968 14.7074L24.9233 14.7752L24.9236 14.7755L24.9968 14.7074ZM23.0366 14.4815L22.9883 14.3939L22.9879 14.3942L23.0366 14.4815ZM22.4442 15.0909L22.3564 15.0432L22.3564 15.0432L22.4442 15.0909ZM22.1269 16.0625V20H22.3269V16.0625H22.1269ZM22.2269 19.9H21.2212V20.1H22.2269V19.9ZM21.3212 20V13.4545H21.1212V20H21.3212ZM21.2212 13.5545H22.1928V13.3545H21.2212V13.5545ZM22.0928 13.4545V14.4773H22.2928V13.4545H22.0928ZM22.1928 14.5773H22.2781V14.3773H22.1928V14.5773ZM22.3688 14.5192C22.5142 14.2043 22.7343 13.9517 23.0311 13.7602L22.9227 13.5921C22.5945 13.8039 22.3487 14.0855 22.1873 14.4354L22.3688 14.5192ZM23.0317 13.7598C23.3234 13.5689 23.7061 13.4693 24.1871 13.4693V13.2693C23.6795 13.2693 23.2554 13.3743 22.9222 13.5925L23.0317 13.7598ZM24.1871 13.4693C24.6164 13.4693 24.9872 13.5573 25.3025 13.7298L25.3985 13.5543C25.0491 13.3632 24.6442 13.2693 24.1871 13.2693V13.4693ZM25.3031 13.7301C25.6158 13.8985 25.8605 14.1554 26.0368 14.5052L26.2154 14.4152C26.0223 14.0321 25.7499 13.7435 25.3979 13.554L25.3031 13.7301ZM26.0369 14.5055C26.2123 14.8509 26.3031 15.2944 26.3031 15.8409H26.5031C26.5031 15.2738 26.4091 14.7968 26.2152 14.4149L26.0369 14.5055ZM26.3031 15.8409V20H26.5031V15.8409H26.3031ZM26.4031 19.9H25.3974V20.1H26.4031V19.9ZM25.4974 20V15.9091H25.2974V20H25.4974ZM25.4974 15.9091C25.4974 15.3777 25.3591 14.9499 25.07 14.6393L24.9236 14.7755C25.1686 15.0388 25.2974 15.4121 25.2974 15.9091H25.4974ZM25.0703 14.6396C24.7809 14.3255 24.3857 14.1727 23.8974 14.1727V14.3727C24.3409 14.3727 24.6786 14.5097 24.9233 14.7752L25.0703 14.6396ZM23.8974 14.1727C23.5614 14.1727 23.2576 14.2457 22.9883 14.3939L23.0848 14.5691C23.3213 14.4389 23.5913 14.3727 23.8974 14.3727V14.1727ZM22.9879 14.3942C22.7203 14.5432 22.5097 14.7606 22.3564 15.0432L22.5321 15.1386C22.6686 14.8872 22.8528 14.6983 23.0852 14.5689L22.9879 14.3942ZM22.3564 15.0432C22.2018 15.3282 22.1269 15.6693 22.1269 16.0625H22.3269C22.3269 15.6943 22.397 15.3878 22.5321 15.1386L22.3564 15.0432ZM29.0376 19.919L28.9951 20.0095L28.9957 20.0098L29.0376 19.919ZM28.2322 19.233L28.1488 19.2881L28.149 19.2884L28.2322 19.233ZM28.1555 17.2301L28.24 17.2837L28.2403 17.2832L28.1555 17.2301ZM29.5661 16.3778L29.5874 16.4755L29.5881 16.4754L29.5661 16.3778ZM30.4737 16.2159L30.461 16.1167L30.4607 16.1168L30.4737 16.2159ZM31.4411 16.1009L31.4513 16.2003L31.4523 16.2002L31.4411 16.1009ZM31.9865 15.9602L31.9376 15.873L31.9367 15.8735L31.9865 15.9602ZM31.8161 14.6051L31.7445 14.6749L31.7449 14.6754L31.8161 14.6051ZM29.6513 14.571L29.7123 14.6502L29.7123 14.6502L29.6513 14.571ZM29.076 15.2443L29.0424 15.3385L29.1283 15.3692L29.1667 15.2864L29.076 15.2443ZM28.1214 14.9034L28.0295 14.864L27.9876 14.9618L28.0878 14.9976L28.1214 14.9034ZM28.8033 13.9744L28.8648 14.0533L28.8649 14.0532L28.8033 13.9744ZM29.7408 13.5057L29.766 13.6025L29.7665 13.6023L29.7408 13.5057ZM31.4709 13.446L31.4525 13.5443L31.4536 13.5445L31.4709 13.446ZM32.2678 13.7486L32.2163 13.8343L32.2167 13.8346L32.2678 13.7486ZM32.9112 14.4432L32.8236 14.4914L32.8236 14.4914L32.9112 14.4432ZM33.1669 20V20.1H33.2669V20H33.1669ZM32.1612 20H32.0612V20.1H32.1612V20ZM32.1612 19.1136H32.2612V19.0136H32.1612V19.1136ZM32.1101 19.1136V19.0136H32.0472L32.0199 19.0704L32.1101 19.1136ZM31.7692 19.5696L31.8405 19.6397L31.8405 19.6397L31.7692 19.5696ZM31.1342 19.983L31.0947 19.8911L31.0947 19.8911L31.1342 19.983ZM31.326 19.0156L31.2767 18.9286L31.2763 18.9289L31.326 19.0156ZM31.9482 18.4105L31.8614 18.3607L31.861 18.3614L31.9482 18.4105ZM32.1612 16.7102H32.2612V16.434L32.0844 16.6462L32.1612 16.7102ZM31.88 16.8509L31.9069 16.9472L31.9082 16.9468L31.88 16.8509ZM31.3857 16.9574L31.4009 17.0562L31.4021 17.056L31.3857 16.9574ZM30.8445 17.0341L30.8559 17.1334L30.8573 17.1333L30.8445 17.0341ZM30.4226 17.0852L30.4355 17.1844L30.4356 17.1844L30.4226 17.0852ZM29.6896 17.2514L29.7209 17.3464L29.7216 17.3462L29.6896 17.2514ZM29.1442 17.5881L29.0707 17.5202L29.0707 17.5202L29.1442 17.5881ZM29.3274 18.9858L29.2705 19.068L29.2715 19.0687L29.3274 18.9858ZM30.1669 20.0534C29.765 20.0534 29.4031 19.9778 29.0796 19.8283L28.9957 20.0098C29.3483 20.1728 29.7393 20.2534 30.1669 20.2534V20.0534ZM29.0802 19.8286C28.7579 19.6769 28.5038 19.46 28.3154 19.1775L28.149 19.2884C28.3584 19.6025 28.6412 19.843 28.9951 20.0095L29.0802 19.8286ZM28.3157 19.1778C28.1295 18.8958 28.0339 18.5522 28.0339 18.142H27.8339C27.8339 18.5842 27.9373 18.9678 28.1488 19.2881L28.3157 19.1778ZM28.0339 18.142C28.0339 17.7794 28.1055 17.4958 28.24 17.2837L28.0711 17.1766C27.9102 17.4303 27.8339 17.7547 27.8339 18.142H28.0339ZM28.2403 17.2832C28.3787 17.0622 28.5633 16.8895 28.7954 16.7641L28.7003 16.5882C28.4381 16.7298 28.2278 16.9264 28.0708 17.177L28.2403 17.2832ZM28.7954 16.7641C29.0337 16.6354 29.2975 16.539 29.5874 16.4755L29.5447 16.2802C29.238 16.3473 28.9564 16.4498 28.7003 16.5882L28.7954 16.7641ZM29.5881 16.4754C29.8863 16.4079 30.1858 16.3544 30.4867 16.3151L30.4607 16.1168C30.1537 16.1569 29.8481 16.2115 29.544 16.2803L29.5881 16.4754ZM30.4865 16.3151C30.8838 16.264 31.2053 16.2258 31.4513 16.2003L31.4308 16.0014C31.1824 16.0271 30.8591 16.0655 30.461 16.1167L30.4865 16.3151ZM31.4523 16.2002C31.7057 16.1714 31.9044 16.1228 32.0364 16.0469L31.9367 15.8735C31.8414 15.9283 31.6764 15.9735 31.4298 16.0015L31.4523 16.2002ZM32.0354 16.0474C32.1907 15.9604 32.2612 15.8083 32.2612 15.6193H32.0612C32.0612 15.7542 32.0153 15.8294 31.9376 15.873L32.0354 16.0474ZM32.2612 15.6193V15.5852H32.0612V15.6193H32.2612ZM32.2612 15.5852C32.2612 15.1463 32.1406 14.7914 31.8872 14.5348L31.7449 14.6754C31.9517 14.8847 32.0612 15.1833 32.0612 15.5852H32.2612ZM31.8876 14.5353C31.6348 14.2761 31.259 14.1557 30.7805 14.1557V14.3557C31.2282 14.3557 31.5428 14.4682 31.7445 14.6749L31.8876 14.5353ZM30.7805 14.1557C30.2869 14.1557 29.8862 14.2637 29.5902 14.4918L29.7123 14.6502C29.9618 14.4579 30.314 14.3557 30.7805 14.3557V14.1557ZM29.5902 14.4918C29.3086 14.7089 29.1046 14.9452 28.9853 15.2022L29.1667 15.2864C29.269 15.0662 29.4485 14.8536 29.7123 14.6502L29.5902 14.4918ZM29.1096 15.1501L28.1551 14.8092L28.0878 14.9976L29.0424 15.3385L29.1096 15.1501ZM28.2134 14.9428C28.3785 14.5575 28.5964 14.2626 28.8648 14.0533L28.7418 13.8956C28.4419 14.1294 28.2053 14.4539 28.0295 14.864L28.2134 14.9428ZM28.8649 14.0532C29.1415 13.8368 29.4417 13.6869 29.766 13.6025L29.7156 13.4089C29.3637 13.5006 29.0389 13.6632 28.7417 13.8957L28.8649 14.0532ZM29.7665 13.6023C30.0996 13.5135 30.4262 13.4693 30.7464 13.4693V13.2693C30.4076 13.2693 30.0637 13.3161 29.715 13.4091L29.7665 13.6023ZM30.7464 13.4693C30.9489 13.4693 31.184 13.494 31.4525 13.5443L31.4893 13.3477C31.2123 13.2958 30.9645 13.2693 30.7464 13.2693V13.4693ZM31.4536 13.5445C31.7163 13.5906 31.9704 13.6868 32.2163 13.8343L32.3192 13.6628C32.0537 13.5035 31.7766 13.3981 31.4881 13.3475L31.4536 13.5445ZM32.2167 13.8346C32.4574 13.9774 32.6602 14.1946 32.8236 14.4914L32.9988 14.395C32.8213 14.0724 32.5952 13.8266 32.3188 13.6626L32.2167 13.8346ZM32.8236 14.4914C32.983 14.781 33.0669 15.1771 33.0669 15.6875H33.2669C33.2669 15.1581 33.1804 14.7247 32.9988 14.395L32.8236 14.4914ZM33.0669 15.6875V20H33.2669V15.6875H33.0669ZM33.1669 19.9H32.1612V20.1H33.1669V19.9ZM32.2612 20V19.1136H32.0612V20H32.2612ZM32.1612 19.0136H32.1101V19.2136H32.1612V19.0136ZM32.0199 19.0704C31.9581 19.1992 31.8523 19.3423 31.6978 19.4995L31.8405 19.6397C32.0042 19.4731 32.1257 19.3122 32.2002 19.1569L32.0199 19.0704ZM31.6978 19.4995C31.5499 19.6501 31.3501 19.7813 31.0947 19.8911L31.1737 20.0748C31.4468 19.9574 31.6703 19.813 31.8405 19.6397L31.6978 19.4995ZM31.0947 19.8911C30.8463 19.9979 30.5382 20.0534 30.1669 20.0534V20.2534C30.557 20.2534 30.8937 20.1953 31.1737 20.0748L31.0947 19.8911ZM30.3203 19.35C30.7309 19.35 31.0843 19.2693 31.3757 19.1024L31.2763 18.9289C31.0222 19.0744 30.7052 19.15 30.3203 19.15V19.35ZM31.3753 19.1026C31.6648 18.9385 31.8861 18.7244 32.0353 18.4596L31.861 18.3614C31.7318 18.591 31.5383 18.7803 31.2767 18.9286L31.3753 19.1026ZM32.0349 18.4603C32.1852 18.1987 32.2612 17.9217 32.2612 17.6307H32.0612C32.0612 17.8851 31.9952 18.128 31.8615 18.3607L32.0349 18.4603ZM32.2612 17.6307V16.7102H32.0612V17.6307H32.2612ZM32.0844 16.6462C32.0755 16.6568 32.0551 16.6739 32.0142 16.6943C31.9744 16.7142 31.9208 16.7346 31.8518 16.7549L31.9082 16.9468C31.9841 16.9245 32.0497 16.9001 32.1037 16.8732C32.1566 16.8467 32.2043 16.8147 32.238 16.7742L32.0844 16.6462ZM31.853 16.7546C31.7152 16.7931 31.5541 16.8279 31.3692 16.8587L31.4021 17.056C31.5922 17.0243 31.7606 16.9881 31.9069 16.9471L31.853 16.7546ZM31.3704 16.8585C31.1865 16.8868 31.007 16.9123 30.8317 16.9349L30.8573 17.1333C31.0342 17.1104 31.2154 17.0847 31.4009 17.0562L31.3704 16.8585ZM30.8331 16.9347C30.6595 16.9547 30.5183 16.9718 30.4095 16.9861L30.4356 17.1844C30.5428 17.1703 30.6828 17.1533 30.8559 17.1334L30.8331 16.9347ZM30.4097 16.9861C30.1424 17.0209 29.8917 17.0777 29.6577 17.1567L29.7216 17.3462C29.9421 17.2717 30.18 17.2177 30.4355 17.1844L30.4097 16.9861ZM29.6584 17.1564C29.4203 17.2348 29.2231 17.3554 29.0707 17.5202L29.2176 17.656C29.3436 17.5196 29.5101 17.4158 29.7209 17.3464L29.6584 17.1564ZM29.0707 17.5202C28.913 17.6911 28.8396 17.9194 28.8396 18.1932H29.0396C29.0396 17.9556 29.1026 17.7805 29.2177 17.6559L29.0707 17.5202ZM28.8396 18.1932C28.8396 18.5712 28.9817 18.8681 29.2705 19.068L29.3843 18.9036C29.1561 18.7456 29.0396 18.5141 29.0396 18.1932H28.8396ZM29.2715 19.0687C29.5534 19.2587 29.9052 19.35 30.3203 19.35V19.15C29.9343 19.15 29.6242 19.0652 29.3833 18.9029L29.2715 19.0687ZM36.3917 22.4034L36.4254 22.3092L36.4247 22.309L36.3917 22.4034ZM35.5181 21.9176L35.5836 21.842L35.5835 21.842L35.5181 21.9176ZM34.9684 21.2784L34.9109 21.1966L34.8348 21.25L34.8826 21.3299L34.9684 21.2784ZM35.7695 20.7159L35.8491 20.6553L35.7908 20.5788L35.7121 20.6341L35.7695 20.7159ZM36.1147 21.125L36.1894 21.0585L36.1888 21.0578L36.1147 21.125ZM36.6857 21.5298L36.7288 21.4396L36.7283 21.4393L36.6857 21.5298ZM38.9528 21.321L39.0125 21.4013L39.0125 21.4013L38.9528 21.321ZM39.4684 18.7898H39.5684V18.6898H39.4684V18.7898ZM39.3832 18.7898V18.6898H39.3275L39.2981 18.7371L39.3832 18.7898ZM39.0678 19.233L38.9888 19.1717L38.9886 19.1719L39.0678 19.233ZM38.4883 19.6974L38.5354 19.7857L38.5358 19.7855L38.4883 19.6974ZM36.0508 19.5227L35.9994 19.6085L35.9997 19.6087L36.0508 19.5227ZM35.0579 18.4318L34.9687 18.477L34.9689 18.4774L35.0579 18.4318ZM35.0494 14.9418L35.1397 14.9846L35.1398 14.9844L35.0494 14.9418ZM36.0337 13.7827L36.0882 13.8666L36.0886 13.8663L36.0337 13.7827ZM38.5053 13.5824L38.4559 13.6693L38.4571 13.67L38.5053 13.5824ZM39.0849 14.0597L39.0047 14.1195L39.0058 14.1209L39.0849 14.0597ZM39.4002 14.4943L39.3164 14.5488L39.3459 14.5943H39.4002V14.4943ZM39.5025 14.4943V14.5943H39.6025V14.4943H39.5025ZM39.5025 13.4545V13.3545H39.4025V13.4545H39.5025ZM40.4741 13.4545H40.5741V13.3545H40.4741V13.4545ZM40.0906 21.5597L40.0096 21.5009L40.0091 21.5017L40.0906 21.5597ZM39.0678 22.3395L39.032 22.2461L39.0312 22.2464L39.0678 22.3395ZM38.6332 18.7173L38.5779 18.634L38.5779 18.634L38.6332 18.7173ZM39.2681 17.9205L39.3604 17.959L39.3604 17.959L39.2681 17.9205ZM39.2724 15.4276L39.3654 15.3909L39.3654 15.3909L39.2724 15.4276ZM38.6417 14.5795L38.5825 14.6601L38.5825 14.6601L38.6417 14.5795ZM36.5451 14.5966L36.4846 14.517L36.4842 14.5173L36.5451 14.5966ZM35.9102 15.4659L35.817 15.4295L35.8168 15.4302L35.9102 15.4659ZM35.9144 17.8821L35.8218 17.9198L35.8222 17.9207L35.9144 17.8821ZM36.5536 18.7003L36.4959 18.7819L36.4968 18.7826L36.5536 18.7003ZM37.6445 22.4909C37.1669 22.4909 36.7612 22.4294 36.4254 22.3093L36.358 22.4976C36.721 22.6274 37.1506 22.6909 37.6445 22.6909V22.4909ZM36.4247 22.309C36.0848 22.1902 35.8053 22.034 35.5836 21.842L35.4527 21.9932C35.6969 22.2047 35.9997 22.3723 36.3587 22.4978L36.4247 22.309ZM35.5835 21.842C35.3603 21.649 35.1843 21.4439 35.0541 21.227L34.8826 21.3299C35.0252 21.5675 35.2157 21.7885 35.4527 21.9933L35.5835 21.842ZM35.0259 21.3603L35.827 20.7978L35.7121 20.6341L34.9109 21.1966L35.0259 21.3603ZM35.69 20.7765C35.7831 20.8988 35.9002 21.0374 36.0406 21.1922L36.1888 21.0578C36.0508 20.9058 35.9377 20.7717 35.8491 20.6553L35.69 20.7765ZM36.04 21.1915C36.1903 21.3602 36.3927 21.5025 36.6431 21.6203L36.7283 21.4393C36.4958 21.3299 36.3175 21.2023 36.1894 21.0585L36.04 21.1915ZM36.6427 21.6201C36.9052 21.7452 37.2411 21.8045 37.6445 21.8045V21.6045C37.2582 21.6045 36.9549 21.5474 36.7288 21.4396L36.6427 21.6201ZM37.6445 21.8045C38.1893 21.8045 38.6478 21.6725 39.0125 21.4013L38.8931 21.2408C38.5703 21.4809 38.1566 21.6045 37.6445 21.6045V21.8045ZM39.0125 21.4013C39.3884 21.1217 39.5684 20.6869 39.5684 20.1193H39.3684C39.3684 20.6427 39.2047 21.009 38.8931 21.2408L39.0125 21.4013ZM39.5684 20.1193V18.7898H39.3684V20.1193H39.5684ZM39.4684 18.6898H39.3832V18.8898H39.4684V18.6898ZM39.2981 18.7371C39.2269 18.8523 39.1241 18.997 38.9888 19.1717L39.1469 19.2942C39.2843 19.1167 39.3918 18.9659 39.4682 18.8424L39.2981 18.7371ZM38.9886 19.1719C38.8659 19.3312 38.685 19.4777 38.4408 19.6094L38.5358 19.7855C38.7973 19.6444 39.0027 19.4813 39.147 19.294L38.9886 19.1719ZM38.4412 19.6092C38.2111 19.7321 37.8914 19.7977 37.4741 19.7977V19.9977C37.909 19.9977 38.2654 19.9298 38.5354 19.7857L38.4412 19.6092ZM37.4741 19.7977C36.9622 19.7977 36.5056 19.6768 36.1019 19.4368L35.9997 19.6087C36.4368 19.8686 36.9292 19.9977 37.4741 19.9977V19.7977ZM36.1021 19.4369C35.7022 19.1975 35.3836 18.8486 35.1469 18.3863L34.9689 18.4774C35.2208 18.9696 35.5641 19.3479 35.9994 19.6085L36.1021 19.4369ZM35.1471 18.3867C34.9144 17.9267 34.7957 17.3635 34.7957 16.6932H34.5957C34.5957 17.3865 34.7184 17.9824 34.9687 18.477L35.1471 18.3867ZM34.7957 16.6932C34.7957 16.0344 34.9115 15.4658 35.1397 14.9846L34.959 14.8989C34.7156 15.4121 34.5957 16.0111 34.5957 16.6932H34.7957ZM35.1398 14.9844C35.3685 14.4995 35.6849 14.1281 36.0882 13.8666L35.9793 13.6988C35.5417 13.9827 35.2018 14.3841 34.9589 14.8991L35.1398 14.9844ZM36.0886 13.8663C36.4912 13.6024 36.9575 13.4693 37.4911 13.4693V13.2693C36.9225 13.2693 36.4172 13.4118 35.9789 13.699L36.0886 13.8663ZM37.4911 13.4693C37.9077 13.4693 38.2265 13.539 38.4559 13.6693L38.5547 13.4954C38.2841 13.3417 37.9268 13.2693 37.4911 13.2693V13.4693ZM38.4571 13.67C38.7009 13.8042 38.8818 13.9547 39.0047 14.1195L39.165 13.9999C39.0209 13.8066 38.8154 13.6389 38.5536 13.4948L38.4571 13.67ZM39.0058 14.1209C39.1414 14.296 39.2446 14.4385 39.3164 14.5488L39.4841 14.4398C39.4081 14.3229 39.3011 14.1756 39.1639 13.9984L39.0058 14.1209ZM39.4002 14.5943H39.5025V14.3943H39.4002V14.5943ZM39.6025 14.4943V13.4545H39.4025V14.4943H39.6025ZM39.5025 13.5545H40.4741V13.3545H39.5025V13.5545ZM40.3741 13.4545V20.1875H40.5741V13.4545H40.3741ZM40.3741 20.1875C40.3741 20.7351 40.2497 21.1701 40.0096 21.5009L40.1715 21.6184C40.4427 21.2447 40.5741 20.7649 40.5741 20.1875H40.3741ZM40.0091 21.5017C39.7683 21.8399 39.4436 22.088 39.032 22.2461L39.1037 22.4328C39.55 22.2614 39.9071 21.9897 40.172 21.6177L40.0091 21.5017ZM39.0312 22.2464C38.6183 22.4089 38.1565 22.4909 37.6445 22.4909V22.6909C38.178 22.6909 38.6651 22.6053 39.1044 22.4325L39.0312 22.2464ZM37.6104 19.0943C38.0294 19.0943 38.3905 18.9983 38.6884 18.8007L38.5779 18.634C38.319 18.8057 37.9983 18.8943 37.6104 18.8943V19.0943ZM38.6884 18.8007C38.9853 18.6037 39.2088 18.3215 39.3604 17.959L39.1758 17.8819C39.0376 18.2126 38.8378 18.4616 38.5779 18.634L38.6884 18.8007ZM39.3604 17.959C39.5116 17.5973 39.5854 17.1687 39.5854 16.6761H39.3854C39.3854 17.1495 39.3144 17.5505 39.1758 17.8819L39.3604 17.959ZM39.5854 16.6761C39.5854 16.1946 39.5129 15.7656 39.3654 15.3909L39.1793 15.4642C39.3159 15.8111 39.3854 16.2144 39.3854 16.6761H39.5854ZM39.3654 15.3909C39.2173 15.0148 38.9963 14.716 38.7009 14.499L38.5825 14.6601C38.8439 14.8522 39.0433 15.1187 39.1793 15.4642L39.3654 15.3909ZM38.7009 14.499C38.4023 14.2796 38.0368 14.1727 37.6104 14.1727V14.3727C38.0023 14.3727 38.3242 14.4704 38.5825 14.6601L38.7009 14.499ZM37.6104 14.1727C37.1668 14.1727 36.7893 14.2854 36.4846 14.517L36.6056 14.6762C36.8691 14.4759 37.2018 14.3727 37.6104 14.3727V14.1727ZM36.4842 14.5173C36.1871 14.7454 35.965 15.0507 35.817 15.4295L36.0033 15.5023C36.1394 15.1539 36.3406 14.8796 36.606 14.6759L36.4842 14.5173ZM35.8168 15.4302C35.6726 15.8067 35.6013 16.2224 35.6013 16.6761H35.8013C35.8013 16.2435 35.8693 15.8524 36.0035 15.5017L35.8168 15.4302ZM35.6013 16.6761C35.6013 17.141 35.674 17.5562 35.8218 17.9198L36.0071 17.8444C35.8708 17.5092 35.8013 17.1204 35.8013 16.6761H35.6013ZM35.8222 17.9207C35.9736 18.283 36.1979 18.5713 36.4959 18.7819L36.6114 18.6186C36.3468 18.4316 36.145 18.1744 36.0067 17.8435L35.8222 17.9207ZM36.4968 18.7826C36.801 18.9924 37.1742 19.0943 37.6104 19.0943V18.8943C37.2058 18.8943 36.8745 18.8002 36.6104 18.618L36.4968 18.7826ZM43.4272 19.7188L43.3746 19.8038L43.3752 19.8042L43.4272 19.7188ZM42.3746 18.5426L42.2846 18.5861L42.2849 18.5867L42.3746 18.5426ZM42.3746 15.0057L42.2845 14.9624L42.2844 14.9626L42.3746 15.0057ZM43.4059 13.804L43.4605 13.8878L43.4606 13.8877L43.4059 13.804ZM45.967 13.5398L45.9993 13.4451L45.9993 13.4451L45.967 13.5398ZM46.8746 14.0938L46.8062 14.1667L46.8067 14.1671L46.8746 14.0938ZM47.5266 15.0994L47.6199 15.0633L47.6199 15.0633L47.5266 15.0994ZM47.7695 17.0682V17.1682H47.8695V17.0682H47.7695ZM42.7241 17.0682H42.6241V17.1682H42.7241V17.0682ZM42.7241 16.1989V16.0989H42.6241V16.1989H42.7241ZM46.7468 16.1989V16.2989H46.8468V16.1989H46.7468ZM46.5252 15.2102L46.4358 15.2549L46.4361 15.2556L46.5252 15.2102ZM45.9031 14.5241L45.8499 14.6088L45.8503 14.6091L45.9031 14.5241ZM43.9173 14.571L43.9733 14.6539L43.9735 14.6537L43.9173 14.571ZM43.2482 15.3381L43.1586 15.2937L43.1586 15.2937L43.2482 15.3381ZM43.2695 18.1889L43.1799 18.2333L43.1804 18.2342L43.2695 18.1889ZM43.9897 18.9688L43.9393 19.0551L43.9399 19.0555L43.9897 18.9688ZM45.7752 19.1222L45.808 19.2166L45.8087 19.2164L45.7752 19.1222ZM46.3335 18.7812L46.4028 18.8533L46.4035 18.8526L46.3335 18.7812ZM46.6957 18.2102L46.7227 18.1139L46.6343 18.0891L46.602 18.1751L46.6957 18.2102ZM47.6673 18.483L47.7628 18.5126L47.7932 18.4144L47.6943 18.3867L47.6673 18.483ZM47.1516 19.3523L47.2232 19.4222L47.2236 19.4217L47.1516 19.3523ZM46.2567 19.9318L46.2926 20.0252L46.2932 20.0249L46.2567 19.9318ZM45.0593 20.0364C44.4437 20.0364 43.9183 19.9006 43.4792 19.6333L43.3752 19.8042C43.8509 20.0937 44.4136 20.2364 45.0593 20.2364V20.0364ZM43.4798 19.6337C43.042 19.3628 42.7037 18.9853 42.4644 18.4985L42.2849 18.5867C42.5399 19.1056 42.9033 19.5122 43.3746 19.8038L43.4798 19.6337ZM42.4647 18.4991C42.2281 18.0094 42.1082 17.4367 42.1082 16.7784H41.9082C41.9082 17.461 42.0326 18.0645 42.2846 18.5861L42.4647 18.4991ZM42.1082 16.7784C42.1082 16.1202 42.2281 15.5444 42.4649 15.0488L42.2844 14.9626C42.0326 15.4896 41.9082 16.0957 41.9082 16.7784H42.1082ZM42.4648 15.049C42.7047 14.5498 43.0368 14.1639 43.4605 13.8878L43.3513 13.7202C42.8943 14.018 42.5389 14.4331 42.2845 14.9624L42.4648 15.049ZM43.4606 13.8877C43.8857 13.6097 44.3832 13.4693 44.957 13.4693V13.2693C44.349 13.2693 43.8125 13.4187 43.3512 13.7203L43.4606 13.8877ZM44.957 13.4693C45.2866 13.4693 45.6123 13.5242 45.9346 13.6344L45.9993 13.4451C45.6568 13.3281 45.3093 13.2693 44.957 13.2693V13.4693ZM45.9346 13.6344C46.2527 13.7432 46.5432 13.9201 46.8063 14.1667L46.943 14.0208C46.6606 13.7561 46.346 13.5637 45.9993 13.4451L45.9346 13.6344ZM46.8067 14.1671C47.0662 14.4077 47.2758 14.7293 47.4334 15.1356L47.6199 15.0633C47.4536 14.6344 47.2285 14.2855 46.9426 14.0204L46.8067 14.1671ZM47.4334 15.1356C47.5896 15.5383 47.6695 16.0394 47.6695 16.642H47.8695C47.8695 16.0231 47.7876 15.4958 47.6199 15.0633L47.4334 15.1356ZM47.6695 16.642V17.0682H47.8695V16.642H47.6695ZM47.7695 16.9682H42.7241V17.1682H47.7695V16.9682ZM42.8241 17.0682V16.1989H42.6241V17.0682H42.8241ZM42.7241 16.2989H46.7468V16.0989H42.7241V16.2989ZM46.8468 16.1989C46.8468 15.8159 46.7701 15.4704 46.6143 15.1648L46.4361 15.2556C46.5758 15.5296 46.6468 15.8432 46.6468 16.1989H46.8468ZM46.6147 15.1655C46.4617 14.8595 46.2417 14.6168 45.9558 14.4392L45.8503 14.6091C46.1041 14.7668 46.299 14.9814 46.4358 15.2549L46.6147 15.1655ZM45.9562 14.4394C45.6709 14.2604 45.3365 14.1727 44.957 14.1727V14.3727C45.3048 14.3727 45.6011 14.4527 45.8499 14.6088L45.9562 14.4394ZM44.957 14.1727C44.5392 14.1727 44.1724 14.2767 43.861 14.4883L43.9735 14.6537C44.2474 14.4676 44.5738 14.3727 44.957 14.3727V14.1727ZM43.8612 14.4882C43.557 14.694 43.3225 14.9629 43.1586 15.2937L43.3378 15.3825C43.4864 15.0825 43.6979 14.8401 43.9733 14.6539L43.8612 14.4882ZM43.1586 15.2937C42.9954 15.6232 42.9138 15.9765 42.9138 16.3523H43.1138C43.1138 16.0065 43.1886 15.6837 43.3378 15.3825L43.1586 15.2937ZM42.9138 16.3523V16.9318H43.1138V16.3523H42.9138ZM42.9138 16.9318C42.9138 17.4373 43.001 17.8724 43.1799 18.2333L43.3591 18.1445C43.1972 17.8179 43.1138 17.415 43.1138 16.9318H42.9138ZM43.1804 18.2342C43.3617 18.5909 43.6146 18.8657 43.9393 19.0551L44.0401 18.8824C43.7511 18.7138 43.524 18.4688 43.3587 18.1436L43.1804 18.2342ZM43.9399 19.0555C44.264 19.2415 44.6382 19.333 45.0593 19.333V19.133C44.6679 19.133 44.329 19.0482 44.0395 18.882L43.9399 19.0555ZM45.0593 19.333C45.3328 19.333 45.5827 19.2947 45.808 19.2166L45.7425 19.0277C45.5416 19.0973 45.3142 19.133 45.0593 19.133V19.333ZM45.8087 19.2164C46.0372 19.1352 46.2358 19.0143 46.4028 18.8533L46.2641 18.7092C46.1186 18.8494 45.945 18.9557 45.7417 19.0279L45.8087 19.2164ZM46.4035 18.8526C46.5712 18.6879 46.6995 18.4848 46.7893 18.2453L46.602 18.1751C46.5214 18.3902 46.4082 18.5678 46.2634 18.7099L46.4035 18.8526ZM46.6686 18.3065L47.6402 18.5792L47.6943 18.3867L46.7227 18.1139L46.6686 18.3065ZM47.5718 18.4533C47.4742 18.7678 47.3104 19.044 47.0797 19.2828L47.2236 19.4217C47.4758 19.1606 47.6558 18.8572 47.7628 18.5126L47.5718 18.4533ZM47.0801 19.2824C46.8495 19.5184 46.5636 19.7041 46.2203 19.8387L46.2932 20.0249C46.6602 19.8811 46.9708 19.6805 47.2232 19.4222L47.0801 19.2824ZM46.2209 19.8385C45.8789 19.9698 45.4922 20.0364 45.0593 20.0364V20.2364C45.5128 20.2364 45.9243 20.1666 46.2926 20.0252L46.2209 19.8385ZM49.2994 20H49.1994V20.1H49.2994V20ZM49.2994 13.4545V13.3545H49.1994V13.4545H49.2994ZM50.271 13.4545H50.371V13.3545H50.271V13.4545ZM50.271 14.4432H50.171V14.5432H50.271V14.4432ZM50.3391 14.4432V14.5432H50.4089L50.433 14.4778L50.3391 14.4432ZM50.9869 13.6548L50.9326 13.5708L50.9326 13.5708L50.9869 13.6548ZM52.5721 13.3693H52.6721V13.2788L52.582 13.2698L52.5721 13.3693ZM52.5721 14.392L52.5478 14.4891L52.6721 14.5201V14.392H52.5721ZM52.3377 14.3537L52.3213 14.4524L52.3239 14.4527L52.3377 14.3537ZM51.1062 14.5241L51.1529 14.6126L51.1533 14.6124L51.1062 14.5241ZM50.5181 15.0696L50.4332 15.0168L50.433 15.0171L50.5181 15.0696ZM50.305 20V20.1H50.405V20H50.305ZM49.3994 20V13.4545H49.1994V20H49.3994ZM49.2994 13.5545H50.271V13.3545H49.2994V13.5545ZM50.171 13.4545V14.4432H50.371V13.4545H50.171ZM50.271 14.5432H50.3391V14.3432H50.271V14.5432ZM50.433 14.4778C50.5442 14.1758 50.7453 13.9298 51.0411 13.7388L50.9326 13.5708C50.6034 13.7833 50.3727 14.0628 50.2453 14.4086L50.433 14.4778ZM51.0411 13.7388C51.3365 13.5482 51.6698 13.4523 52.0437 13.4523V13.2523C51.6335 13.2523 51.2622 13.3581 50.9326 13.5708L51.0411 13.7388ZM52.0437 13.4523C52.1164 13.4523 52.2078 13.4537 52.3181 13.4565L52.3232 13.2566C52.212 13.2537 52.1187 13.2523 52.0437 13.2523V13.4523ZM52.3181 13.4565C52.4283 13.4593 52.5091 13.4635 52.5621 13.4688L52.582 13.2698C52.5214 13.2638 52.4347 13.2594 52.3232 13.2566L52.3181 13.4565ZM52.4721 13.3693V14.392H52.6721V13.3693H52.4721ZM52.5963 14.295C52.556 14.285 52.4722 14.2715 52.3515 14.2547L52.3239 14.4527C52.4475 14.47 52.52 14.4821 52.5478 14.4891L52.5963 14.295ZM52.3542 14.2551C52.2289 14.2342 52.0969 14.2239 51.9585 14.2239V14.4239C52.087 14.4239 52.2079 14.4334 52.3213 14.4523L52.3542 14.2551ZM51.9585 14.2239C51.6259 14.2239 51.3253 14.2938 51.0591 14.4359L51.1533 14.6124C51.3871 14.4875 51.6547 14.4239 51.9585 14.4239V14.2239ZM51.0594 14.4357C50.7969 14.5745 50.5876 14.7685 50.4332 15.0168L50.603 15.1224C50.7384 14.9048 50.9211 14.7351 51.1529 14.6126L51.0594 14.4357ZM50.433 15.0171C50.2803 15.2644 50.205 15.5457 50.205 15.858H50.405C50.405 15.5793 50.4718 15.335 50.6032 15.1221L50.433 15.0171ZM50.205 15.858V20H50.405V15.858H50.205ZM50.305 19.9H49.2994V20.1H50.305V19.9Z" fill="#1B48DA" mask="url(#path-6-outside-2_5_2)"/>
</svg>
