<svg width="20" height="20" viewBox="0 0 20 20" fill="none" xmlns="http://www.w3.org/2000/svg">
<path d="M8.33325 11.6633C8.60482 11.9405 8.92896 12.1607 9.28669 12.311C9.64442 12.4613 10.0286 12.5387 10.4166 12.5387C10.8046 12.5387 11.1887 12.4613 11.5465 12.311C11.9042 12.1607 12.2284 11.9405 12.4999 11.6633L15.8333 8.32997C16.3711 7.77442 16.6689 7.02974 16.6627 6.25655C16.6564 5.48335 16.3464 4.74361 15.7997 4.19686C15.2529 3.65011 14.5132 3.34018 13.74 3.3339C12.9668 3.32762 12.2221 3.62551 11.6666 4.16331L11.2499 4.57997" stroke="#3B3C51" stroke-width="1.66667" stroke-linecap="round" stroke-linejoin="round"/>
<path d="M11.6667 8.33669C11.395 8.05972 11.0708 7.83972 10.7131 7.68952C10.3554 7.53933 9.9713 7.46198 9.58333 7.46198C9.19536 7.46198 8.81129 7.53933 8.45357 7.68952C8.09586 7.83972 7.77168 8.05972 7.5 8.33669L4.16666 11.67C3.62886 12.2256 3.33098 12.9703 3.33726 13.7434C3.34353 14.5166 3.65347 15.2564 4.20022 15.8031C4.74696 16.3499 5.48671 16.6598 6.2599 16.6661C7.0331 16.6724 7.77778 16.3745 8.33333 15.8367L8.75 15.42" stroke="#3B3C51" stroke-width="1.66667" stroke-linecap="round" stroke-linejoin="round"/>
</svg>
